<?xml version="1.0" encoding="UTF-8"?>
<svg xmlns="http://www.w3.org/2000/svg" width="512" height="512" viewBox="0 0 100 100" fill="none">
<rect x="20" y="18" width="60" height="6" rx="1.5" fill="#C45B28"/>
<line x1="35" y1="24" x2="38" y2="32" stroke="#D4915C" stroke-width="1.2" opacity="0.5" stroke-linecap="round"/>
<line x1="50" y1="24" x2="50" y2="30" stroke="#D4915C" stroke-width="1.2" opacity="0.5" stroke-linecap="round"/>
<line x1="65" y1="24" x2="62" y2="32" stroke="#D4915C" stroke-width="1.2" opacity="0.5" stroke-linecap="round"/>
<path d="M50 32 L72 52 L50 72 L28 52Z" stroke="#C45B28" stroke-width="2.5" fill="#C45B2810" stroke-linejoin="round"/>
<line x1="35" y1="80" x2="38" y2="72" stroke="#D4915C" stroke-width="1.2" opacity="0.5" stroke-linecap="round"/>
<line x1="50" y1="80" x2="50" y2="74" stroke="#D4915C" stroke-width="1.2" opacity="0.5" stroke-linecap="round"/>
<line x1="65" y1="80" x2="62" y2="72" stroke="#D4915C" stroke-width="1.2" opacity="0.5" stroke-linecap="round"/>
<rect x="20" y="80" width="60" height="6" rx="1.5" fill="#C45B28"/>
<path d="M35 52 C37 52, 38 44, 40 44 C42 44, 43 58, 45 58 C47 58, 48 42, 50 42 C52 42, 53 62, 55 62 C57 62, 58 44, 60 44 C62 44, 63 52, 65 52" stroke="#C45B28" stroke-width="2" fill="none" stroke-linecap="round"/>
<path d="M38 52 C40 47, 44 47, 50 52 C56 57, 60 57, 62 52" stroke="#D4915C" stroke-width="1" fill="none" opacity="0.3" stroke-linecap="round"/>
</svg>