<?xml version="1.0" encoding="UTF-8"?>
<svg xmlns="http://www.w3.org/2000/svg" width="512" height="512" viewBox="0 0 100 100" fill="none">
<path d="M52 18 C46 17, 38 18, 32 22 C26 26, 22 32, 21 38 C20 44, 22 48, 24 52 C20 54, 18 58, 18 63 C18 68, 22 72, 28 74 C30 75, 33 76, 36 76 L38 78 C40 82, 44 85, 50 85 C56 85, 60 82, 62 78 L64 76 C68 76, 72 74, 76 71 C80 68, 82 63, 81 58 C80 54, 78 52, 76 50 C79 46, 80 42, 80 38 C80 32, 76 26, 70 22 C64 18, 58 17, 52 18Z" stroke="#000000" stroke-width="2.2" fill="#00000008" stroke-linejoin="round"/>
<line x1="38" y1="28" x2="52" y2="22" stroke="#333333" stroke-width="0.9" opacity="0.4"/>
<line x1="52" y1="22" x2="66" y2="28" stroke="#333333" stroke-width="0.9" opacity="0.4"/>
<line x1="38" y1="28" x2="30" y2="42" stroke="#333333" stroke-width="0.9" opacity="0.4"/>
<line x1="52" y1="22" x2="50" y2="38" stroke="#333333" stroke-width="0.9" opacity="0.4"/>
<line x1="66" y1="28" x2="70" y2="42" stroke="#333333" stroke-width="0.9" opacity="0.4"/>
<line x1="30" y1="42" x2="50" y2="38" stroke="#333333" stroke-width="0.9" opacity="0.4"/>
<line x1="50" y1="38" x2="70" y2="42" stroke="#333333" stroke-width="0.9" opacity="0.4"/>
<line x1="30" y1="42" x2="26" y2="58" stroke="#333333" stroke-width="0.9" opacity="0.4"/>
<line x1="30" y1="42" x2="42" y2="52" stroke="#333333" stroke-width="0.9" opacity="0.4"/>
<line x1="50" y1="38" x2="42" y2="52" stroke="#333333" stroke-width="0.9" opacity="0.4"/>
<line x1="50" y1="38" x2="58" y2="52" stroke="#333333" stroke-width="0.9" opacity="0.4"/>
<line x1="70" y1="42" x2="58" y2="52" stroke="#333333" stroke-width="0.9" opacity="0.4"/>
<line x1="70" y1="42" x2="74" y2="58" stroke="#333333" stroke-width="0.9" opacity="0.4"/>
<line x1="26" y1="58" x2="42" y2="52" stroke="#333333" stroke-width="0.9" opacity="0.4"/>
<line x1="42" y1="52" x2="58" y2="52" stroke="#333333" stroke-width="0.9" opacity="0.4"/>
<line x1="58" y1="52" x2="74" y2="58" stroke="#333333" stroke-width="0.9" opacity="0.4"/>
<line x1="26" y1="58" x2="36" y2="68" stroke="#333333" stroke-width="0.9" opacity="0.4"/>
<line x1="42" y1="52" x2="50" y2="64" stroke="#333333" stroke-width="0.9" opacity="0.4"/>
<line x1="58" y1="52" x2="50" y2="64" stroke="#333333" stroke-width="0.9" opacity="0.4"/>
<line x1="74" y1="58" x2="64" y2="68" stroke="#333333" stroke-width="0.9" opacity="0.4"/>
<line x1="36" y1="68" x2="50" y2="64" stroke="#333333" stroke-width="0.9" opacity="0.4"/>
<line x1="50" y1="64" x2="64" y2="68" stroke="#333333" stroke-width="0.9" opacity="0.4"/>
<line x1="36" y1="68" x2="50" y2="78" stroke="#333333" stroke-width="0.9" opacity="0.4"/>
<line x1="50" y1="64" x2="50" y2="78" stroke="#333333" stroke-width="0.9" opacity="0.4"/>
<line x1="64" y1="68" x2="50" y2="78" stroke="#333333" stroke-width="0.9" opacity="0.4"/>
<circle cx="38" cy="28" r="2.2" fill="#333333"/>
<circle cx="52" cy="22" r="3.2" fill="#000000"/>
<circle cx="66" cy="28" r="2.2" fill="#333333"/>
<circle cx="30" cy="42" r="2.2" fill="#333333"/>
<circle cx="50" cy="38" r="3.2" fill="#000000"/>
<circle cx="70" cy="42" r="2.2" fill="#333333"/>
<circle cx="26" cy="58" r="2.2" fill="#333333"/>
<circle cx="42" cy="52" r="2.2" fill="#333333"/>
<circle cx="58" cy="52" r="2.2" fill="#333333"/>
<circle cx="74" cy="58" r="2.2" fill="#333333"/>
<circle cx="36" cy="68" r="2.2" fill="#333333"/>
<circle cx="50" cy="64" r="3.2" fill="#000000"/>
<circle cx="64" cy="68" r="2.2" fill="#333333"/>
<circle cx="50" cy="78" r="3.2" fill="#000000"/>
<path d="M8 46 L14 52 L8 58" stroke="#000000" stroke-width="2.2" fill="none" stroke-linecap="round" stroke-linejoin="round"/>
<path d="M3 46 L9 52 L3 58" stroke="#333333" stroke-width="1.5" fill="none" stroke-linecap="round" stroke-linejoin="round" opacity="0.4"/>
<path d="M92 46 L86 52 L92 58" stroke="#000000" stroke-width="2.2" fill="none" stroke-linecap="round" stroke-linejoin="round"/>
<path d="M97 46 L91 52 L97 58" stroke="#333333" stroke-width="1.5" fill="none" stroke-linecap="round" stroke-linejoin="round" opacity="0.4"/>

</svg>