<?xml version="1.0" encoding="UTF-8"?>
<svg xmlns="http://www.w3.org/2000/svg" width="512" height="512" viewBox="0 0 100 100" fill="none">
<rect x="20" y="18" width="60" height="6" rx="1.5" fill="#C45B28"/>
<line x1="35" y1="24" x2="38" y2="32" stroke="#D4915C" stroke-width="1.2" opacity="0.5" stroke-linecap="round"/>
<line x1="50" y1="24" x2="50" y2="30" stroke="#D4915C" stroke-width="1.2" opacity="0.5" stroke-linecap="round"/>
<line x1="65" y1="24" x2="62" y2="32" stroke="#D4915C" stroke-width="1.2" opacity="0.5" stroke-linecap="round"/>
<path d="M50 32 L72 52 L50 72 L28 52Z" stroke="#C45B28" stroke-width="2.5" fill="#C45B2812" stroke-linejoin="round"/>
<line x1="35" y1="80" x2="38" y2="72" stroke="#D4915C" stroke-width="1.2" opacity="0.5" stroke-linecap="round"/>
<line x1="50" y1="80" x2="50" y2="74" stroke="#D4915C" stroke-width="1.2" opacity="0.5" stroke-linecap="round"/>
<line x1="65" y1="80" x2="62" y2="72" stroke="#D4915C" stroke-width="1.2" opacity="0.5" stroke-linecap="round"/>
<rect x="20" y="80" width="60" height="6" rx="1.5" fill="#C45B28"/>
<path d="M50 32 L62 45 L50 62 L38 45Z" stroke="#D4915C" stroke-width="1" fill="none" opacity="0.4" stroke-linejoin="round"/>
<line x1="28" y1="52" x2="72" y2="52" stroke="#D4915C" stroke-width="0.8" opacity="0.35"/>
<line x1="50" y1="32" x2="50" y2="72" stroke="#D4915C" stroke-width="0.8" opacity="0.25"/>
</svg>